<svg width="3762" height="1463" xmlns="http://www.w3.org/2000/svg" xmlns:xlink="http://www.w3.org/1999/xlink" xml:space="preserve" overflow="hidden"><defs><clipPath id="clip0"><rect x="106" y="484" width="3762" height="1463"/></clipPath></defs><g clip-path="url(#clip0)" transform="translate(-106 -484)"><rect x="106" y="484" width="3762" height="1463" fill="#262626"/><text fill="#FFFFFF" font-family="Arial,Arial_MSFontService,sans-serif" font-weight="400" font-size="83" transform="matrix(1 0 0 1 527.48 859)">Node 1:</text><text fill="#FFFFFF" font-family="Arial,Arial_MSFontService,sans-serif" font-weight="400" font-size="83" transform="matrix(1 0 0 1 527.48 958)">(ID: 0x540)</text><text fill="#FF0000" font-family="Arial,Arial_MSFontService,sans-serif" font-weight="400" font-size="83" transform="matrix(1 0 0 1 197.48 714)">Note: </text><text fill="#FF0000" font-family="Arial,Arial_MSFontService,sans-serif" font-weight="400" font-size="83" transform="matrix(1 0 0 1 417.48 714)">11 bit</text><text fill="#FF0000" font-family="Arial,Arial_MSFontService,sans-serif" font-weight="400" font-size="83" transform="matrix(1 0 0 1 635.945 714)">IDs</text><path d="M1155 825 1320 825" stroke="#77BC65" stroke-width="27.5433" stroke-linejoin="round" stroke-miterlimit="10" fill="none" fill-rule="evenodd"/><path d="M1320 990 1485 990" stroke="#77BC65" stroke-width="27.5433" stroke-linejoin="round" stroke-miterlimit="10" fill="none" fill-rule="evenodd"/><path d="M1485 825 1650 825" stroke="#77BC65" stroke-width="27.5433" stroke-linejoin="round" stroke-miterlimit="10" fill="none" fill-rule="evenodd"/><path d="M1650 990 1815 990" stroke="#77BC65" stroke-width="27.5433" stroke-linejoin="round" stroke-miterlimit="10" fill="none" fill-rule="evenodd"/><path d="M1815 825 1980 825" stroke="#77BC65" stroke-width="27.5433" stroke-linejoin="round" stroke-miterlimit="10" fill="none" fill-rule="evenodd"/><path d="M0 0 0.000360892 165" stroke="#77BC65" stroke-width="27.5433" stroke-linejoin="round" stroke-miterlimit="10" fill="none" fill-rule="evenodd" transform="matrix(1 0 0 -1 1650 990)"/><path d="M0 0 0.000360892 165" stroke="#77BC65" stroke-width="27.5433" stroke-linejoin="round" stroke-miterlimit="10" fill="none" fill-rule="evenodd" transform="matrix(1 0 0 -1 1320 990)"/><path d="M0 0 0.000360892 165" stroke="#77BC65" stroke-width="27.5433" stroke-linejoin="round" stroke-miterlimit="10" fill="none" fill-rule="evenodd" transform="matrix(1 0 0 -1 1815 990)"/><path d="M0 0 0.000360892 165" stroke="#77BC65" stroke-width="27.5433" stroke-linejoin="round" stroke-miterlimit="10" fill="none" fill-rule="evenodd" transform="matrix(1 0 0 -1 1485 990)"/><text fill="#FFFFFF" font-family="Arial,Arial_MSFontService,sans-serif" font-weight="400" font-size="83" transform="matrix(1 0 0 1 527.48 1169)">Node 2:</text><text fill="#FFFFFF" font-family="Arial,Arial_MSFontService,sans-serif" font-weight="400" font-size="83" transform="matrix(1 0 0 1 527.48 1268)">(ID: 0x530)</text><path d="M1155 1135 1320 1135" stroke="#77BC65" stroke-width="27.5433" stroke-linejoin="round" stroke-miterlimit="10" fill="none" fill-rule="evenodd"/><path d="M1320 1300 1485 1300" stroke="#77BC65" stroke-width="27.5433" stroke-linejoin="round" stroke-miterlimit="10" fill="none" fill-rule="evenodd"/><path d="M1485 1135 1650 1135" stroke="#77BC65" stroke-width="27.5433" stroke-linejoin="round" stroke-miterlimit="10" fill="none" fill-rule="evenodd"/><path d="M1650 1300 1815 1300" stroke="#77BC65" stroke-width="27.5433" stroke-linejoin="round" stroke-miterlimit="10" fill="none" fill-rule="evenodd"/><path d="M1815 1300 1980 1300" stroke="#77BC65" stroke-width="27.5433" stroke-linejoin="round" stroke-miterlimit="10" fill="none" fill-rule="evenodd"/><path d="M1980 1135 2145 1135" stroke="#77BC65" stroke-width="27.5433" stroke-linejoin="round" stroke-miterlimit="10" fill="none" fill-rule="evenodd"/><path d="M2145 1135 2310 1135" stroke="#77BC65" stroke-width="27.5433" stroke-linejoin="round" stroke-miterlimit="10" fill="none" fill-rule="evenodd"/><path d="M0 0 0.000360892 165" stroke="#77BC65" stroke-width="27.5433" stroke-linejoin="round" stroke-miterlimit="10" fill="none" fill-rule="evenodd" transform="matrix(1 0 0 -1 1650 1300)"/><path d="M0 0 0.000360892 165" stroke="#77BC65" stroke-width="27.5433" stroke-linejoin="round" stroke-miterlimit="10" fill="none" fill-rule="evenodd" transform="matrix(1 0 0 -1 1320 1300)"/><path d="M0 0 0.000360892 165" stroke="#77BC65" stroke-width="27.5433" stroke-linejoin="round" stroke-miterlimit="10" fill="none" fill-rule="evenodd" transform="matrix(1 0 0 -1 1980 1300)"/><path d="M0 0 0.000360892 165" stroke="#77BC65" stroke-width="27.5433" stroke-linejoin="round" stroke-miterlimit="10" fill="none" fill-rule="evenodd" transform="matrix(1 0 0 -1 1485 1300)"/><text fill="#FFFFFF" font-family="Arial,Arial_MSFontService,sans-serif" font-weight="400" font-size="83" transform="matrix(1 0 0 1 527.48 1499)">CAN bus </text><text fill="#FFFFFF" font-family="Arial,Arial_MSFontService,sans-serif" font-weight="400" font-size="83" transform="matrix(1 0 0 1 527.48 1598)">output</text><path d="M1155 1465 1320 1465" stroke="#77BC65" stroke-width="27.5433" stroke-linejoin="round" stroke-miterlimit="10" fill="none" fill-rule="evenodd"/><path d="M1320 1630 1485 1630" stroke="#77BC65" stroke-width="27.5433" stroke-linejoin="round" stroke-miterlimit="10" fill="none" fill-rule="evenodd"/><path d="M1485 1465 1650 1465" stroke="#77BC65" stroke-width="27.5433" stroke-linejoin="round" stroke-miterlimit="10" fill="none" fill-rule="evenodd"/><path d="M1650 1630 1815 1630" stroke="#77BC65" stroke-width="27.5433" stroke-linejoin="round" stroke-miterlimit="10" fill="none" fill-rule="evenodd"/><path d="M1815 1630 1980 1630" stroke="#77BC65" stroke-width="27.5433" stroke-linejoin="round" stroke-miterlimit="10" fill="none" fill-rule="evenodd"/><path d="M1980 1465 2145 1465" stroke="#77BC65" stroke-width="27.5433" stroke-linejoin="round" stroke-miterlimit="10" fill="none" fill-rule="evenodd"/><path d="M2145 1465 2310 1465" stroke="#77BC65" stroke-width="27.5433" stroke-linejoin="round" stroke-miterlimit="10" fill="none" fill-rule="evenodd"/><path d="M0 0 0.000360892 165" stroke="#77BC65" stroke-width="27.5433" stroke-linejoin="round" stroke-miterlimit="10" fill="none" fill-rule="evenodd" transform="matrix(1 0 0 -1 1650 1630)"/><path d="M0 0 0.000360892 165" stroke="#77BC65" stroke-width="27.5433" stroke-linejoin="round" stroke-miterlimit="10" fill="none" fill-rule="evenodd" transform="matrix(1 0 0 -1 1320 1630)"/><path d="M0 0 0.000360892 165" stroke="#77BC65" stroke-width="27.5433" stroke-linejoin="round" stroke-miterlimit="10" fill="none" fill-rule="evenodd" transform="matrix(1 0 0 -1 1980 1630)"/><path d="M0 0 0.000360892 165" stroke="#77BC65" stroke-width="27.5433" stroke-linejoin="round" stroke-miterlimit="10" fill="none" fill-rule="evenodd" transform="matrix(1 0 0 -1 1485 1630)"/><path d="M2063.5 825.5 2228.5 990.5" stroke="#F10D0C" stroke-width="10.5236" stroke-linejoin="round" stroke-miterlimit="10" fill="none" fill-rule="evenodd"/><path d="M0 0 165 165" stroke="#F10D0C" stroke-width="10.5236" stroke-linejoin="round" stroke-miterlimit="10" fill="none" fill-rule="evenodd" transform="matrix(-1 0 0 1 2228.5 825.5)"/><text fill="#FFFFFF" font-family="Arial,Arial_MSFontService,sans-serif" font-weight="400" font-size="83" transform="matrix(1 0 0 1 2507.48 1030)">Node 1 stops transmitting when it </text><text fill="#FFFFFF" font-family="Arial,Arial_MSFontService,sans-serif" font-weight="400" font-size="83" transform="matrix(1 0 0 1 2507.48 1129)">realizes another node with higher </text><text fill="#FFFFFF" font-family="Arial,Arial_MSFontService,sans-serif" font-weight="400" font-size="83" transform="matrix(1 0 0 1 2507.48 1228)">priority (lower ID) is also </text><text fill="#FFFFFF" font-family="Arial,Arial_MSFontService,sans-serif" font-weight="400" font-size="83" transform="matrix(1 0 0 1 2507.48 1327)">transmitting</text></g></svg>
