<svg width="2412" height="1756" xmlns="http://www.w3.org/2000/svg" xmlns:xlink="http://www.w3.org/1999/xlink" xml:space="preserve" overflow="hidden"><defs><clipPath id="clip0"><rect x="301" y="253" width="2412" height="1756"/></clipPath></defs><g clip-path="url(#clip0)" transform="translate(-301 -253)"><rect x="301" y="253" width="2412" height="1756" fill="#262626"/><rect x="990.5" y="495.5" width="1320" height="990" stroke="#3465A4" stroke-width="0" stroke-linejoin="round" stroke-miterlimit="10" fill="#729FCF"/><text fill="#FFFFFF" font-family="Arial,Arial_MSFontService,sans-serif" font-weight="400" font-size="83" transform="matrix(1 0 0 1 1104.98 426)">CAN node</text><path d="M0 0 2.99974 399" stroke="#FFFF6D" stroke-width="27.5433" stroke-linejoin="round" stroke-miterlimit="10" fill="none" fill-rule="evenodd" transform="matrix(1 0 0 -1 1730 1802)"/><path d="M0 0 0.000360892 330" stroke="#00A933" stroke-width="27.5433" stroke-linejoin="round" stroke-miterlimit="10" fill="none" fill-rule="evenodd" transform="matrix(1 0 0 -1 1650 1733)"/><rect x="1238.5" y="1238.5" width="825" height="165" stroke="#3465A4" stroke-width="0" stroke-linejoin="round" stroke-miterlimit="10" fill="#E16173"/><text fill="#FFFFFF" font-family="Arial,Arial_MSFontService,sans-serif" font-weight="400" font-size="83" transform="matrix(1 0 0 1 1338.32 1351)">CAN Transceiver</text><rect x="1155.5" y="578.5" width="990" height="495" stroke="#3465A4" stroke-width="0" stroke-linejoin="round" stroke-miterlimit="10" fill="#77BC65"/><text font-family="Arial,Arial_MSFontService,sans-serif" font-weight="400" font-size="83" transform="matrix(1 0 0 1 1432.29 757)">FPGA/MCU</text><rect x="1403.5" y="908.5" width="577" height="165" stroke="#3465A4" stroke-width="0" stroke-linejoin="round" stroke-miterlimit="10" fill="#E16173"/><text fill="#FFFFFF" font-family="Arial,Arial_MSFontService,sans-serif" font-weight="400" font-size="83" transform="matrix(1 0 0 1 1604.17 971)">CAN </text><text fill="#FFFFFF" font-family="Arial,Arial_MSFontService,sans-serif" font-weight="400" font-size="83" transform="matrix(1 0 0 1 1512.5 1070)">Controller</text><path d="M0 0 0.000360892 165" stroke="#000000" stroke-width="27.5433" stroke-linejoin="round" stroke-miterlimit="10" fill="none" fill-rule="evenodd" transform="matrix(1 0 0 -1 1815 1238)"/><path d="M0 0 0.000360892 165" stroke="#000000" stroke-width="27.5433" stroke-linejoin="round" stroke-miterlimit="10" fill="none" fill-rule="evenodd" transform="matrix(1 0 0 -1 1733 1238)"/><path d="M0 0 1898 0.000360892" stroke="#00A933" stroke-width="27.5433" stroke-linejoin="round" stroke-miterlimit="10" fill="none" fill-rule="evenodd" transform="matrix(-1 0 0 1 2393 1733)"/><path d="M0 0 1898 0.000360892" stroke="#FFFF6D" stroke-width="27.5433" stroke-linejoin="round" stroke-miterlimit="10" fill="none" fill-rule="evenodd" transform="matrix(-1 0 0 1 2393 1815)"/><text font-family="Arial,Arial_MSFontService,sans-serif" font-weight="400" font-size="55" transform="matrix(1 0 0 1 1599.98 1142)">RX</text><text font-family="Arial,Arial_MSFontService,sans-serif" font-weight="400" font-size="55" transform="matrix(1 0 0 1 1847.48 1142)">TX</text><path d="M1898.5 1167.5 1980.5 1167.5" stroke="#000000" stroke-width="0" stroke-linejoin="round" stroke-miterlimit="10" fill="none" fill-rule="evenodd"/><path d="M1980.5 1084.5 2063.5 1084.5" stroke="#000000" stroke-width="0" stroke-linejoin="round" stroke-miterlimit="10" fill="none" fill-rule="evenodd"/><path d="M2063.5 1167.5 2145.5 1167.5" stroke="#000000" stroke-width="0" stroke-linejoin="round" stroke-miterlimit="10" fill="none" fill-rule="evenodd"/><path d="M2064.5 1167.5 2063.5 1084.5" stroke="#000000" stroke-width="0" stroke-linejoin="round" stroke-miterlimit="10" fill="none" fill-rule="evenodd"/><path d="M1981.5 1167.5 1980.5 1084.5" stroke="#000000" stroke-width="0" stroke-linejoin="round" stroke-miterlimit="10" fill="none" fill-rule="evenodd"/></g></svg>
