<svg width="3719" height="1703" xmlns="http://www.w3.org/2000/svg" xmlns:xlink="http://www.w3.org/1999/xlink" xml:space="preserve" overflow="hidden"><defs><clipPath id="clip0"><rect x="406" y="376" width="3719" height="1703"/></clipPath></defs><g clip-path="url(#clip0)" transform="translate(-406 -376)"><rect x="406" y="376" width="3620" height="1703" fill="#262626"/><rect x="1485.5" y="495.5" width="495" height="495" stroke="#3465A4" stroke-width="0" stroke-linejoin="round" stroke-miterlimit="10" fill="#729FCF"/><text font-family="Arial,Arial_MSFontService,sans-serif" font-weight="400" font-size="83" transform="matrix(1 0 0 1 1645.42 724)">CAN </text><text font-family="Arial,Arial_MSFontService,sans-serif" font-weight="400" font-size="83" transform="matrix(1 0 0 1 1613.33 823)">NODE</text><rect x="2145.5" y="495.5" width="495" height="495" stroke="#3465A4" stroke-width="0" stroke-linejoin="round" stroke-miterlimit="10" fill="#729FCF"/><text font-family="Arial,Arial_MSFontService,sans-serif" font-weight="400" font-size="83" transform="matrix(1 0 0 1 2305.42 724)">CAN </text><text font-family="Arial,Arial_MSFontService,sans-serif" font-weight="400" font-size="83" transform="matrix(1 0 0 1 2273.33 823)">NODE</text><rect x="2805.5" y="495.5" width="495" height="495" stroke="#3465A4" stroke-width="0" stroke-linejoin="round" stroke-miterlimit="10" fill="#729FCF"/><text font-family="Arial,Arial_MSFontService,sans-serif" font-weight="400" font-size="83" transform="matrix(1 0 0 1 2965.42 724)">CAN </text><text font-family="Arial,Arial_MSFontService,sans-serif" font-weight="400" font-size="83" transform="matrix(1 0 0 1 2933.33 823)">NODE</text><path d="M0 0 0.000360892 248" stroke="#00A933" stroke-width="27.5433" stroke-linejoin="round" stroke-miterlimit="10" fill="none" fill-rule="evenodd" transform="matrix(1 0 0 -1 1733 1238)"/><path d="M0 0 0.000360892 248" stroke="#00A933" stroke-width="27.5433" stroke-linejoin="round" stroke-miterlimit="10" fill="none" fill-rule="evenodd" transform="matrix(1 0 0 -1 2393 1238)"/><path d="M0 0 0.999672 248" stroke="#00A933" stroke-width="27.5433" stroke-linejoin="round" stroke-miterlimit="10" fill="none" fill-rule="evenodd" transform="matrix(1 0 0 -1 3053 1238)"/><path d="M0 0 0.000360892 330" stroke="#FFFF6D" stroke-width="27.5433" stroke-linejoin="round" stroke-miterlimit="10" fill="none" fill-rule="evenodd" transform="matrix(1 0 0 -1 1815 1320)"/><path d="M0 0 0.000360892 330" stroke="#FFFF6D" stroke-width="27.5433" stroke-linejoin="round" stroke-miterlimit="10" fill="none" fill-rule="evenodd" transform="matrix(1 0 0 -1 2475 1320)"/><path d="M0 0 0.000360892 330" stroke="#FFFF6D" stroke-width="27.5433" stroke-linejoin="round" stroke-miterlimit="10" fill="none" fill-rule="evenodd" transform="matrix(1 0 0 -1 3135 1320)"/><path d="M0 0 2392 0.000360892" stroke="#FFFF6D" stroke-width="27.5433" stroke-linejoin="round" stroke-miterlimit="10" fill="none" fill-rule="evenodd" transform="matrix(-1 0 0 1 3465 1320)"/><path d="M0 0 2392 0.000360892" stroke="#00A933" stroke-width="27.5433" stroke-linejoin="round" stroke-miterlimit="10" fill="none" fill-rule="evenodd" transform="matrix(-1 0 0 1 3465 1238)"/><rect x="908.5" y="1155.5" width="81.9998" height="248" stroke="#3465A4" stroke-width="0" stroke-linejoin="round" stroke-miterlimit="10" fill="#FFFFFF"/><path d="M0 0-65.323 0-65.323 123.945 82.6299 123.945" stroke="#3465A4" stroke-width="13.7717" stroke-linejoin="round" stroke-miterlimit="10" fill="none" fill-rule="evenodd" transform="matrix(1.83697e-16 1 1 -1.83697e-16 949 1155)"/><path d="M949 1402.63 949 1467.69 1072.95 1467.69 1072.95 1320" stroke="#3465A4" stroke-width="13.7717" stroke-linejoin="round" stroke-miterlimit="10" fill="none" fill-rule="evenodd"/><rect x="3548.5" y="1155.5" width="81.9998" height="248" stroke="#3465A4" stroke-width="0" stroke-linejoin="round" stroke-miterlimit="10" fill="#FFFFFF"/><path d="M0 0 147.693 0 147.693 123.815 82.6299 123.815" stroke="#3465A4" stroke-width="13.7717" stroke-linejoin="round" stroke-miterlimit="10" fill="none" fill-rule="evenodd" transform="matrix(1.83697e-16 1 1 -1.83697e-16 3465 1320)"/><path d="M3465 1237.63 3465 1089.68 3588.81 1089.68 3588.81 1155" stroke="#3465A4" stroke-width="13.7717" stroke-linejoin="round" stroke-miterlimit="10" fill="none" fill-rule="evenodd"/><text fill="#FFFFFF" font-family="Arial,Arial_MSFontService,sans-serif" font-weight="400" font-size="60" transform="matrix(1 0 0 1 3662.48 1311)">120 </text><text fill="#FFFFFF" font-family="Arial,Arial_MSFontService,sans-serif" font-weight="400" font-size="60" transform="matrix(1 0 0 1 3778.78 1311)">Ω</text><text fill="#FFFFFF" font-family="Arial,Arial_MSFontService,sans-serif" font-weight="400" font-size="60" transform="matrix(1 0 0 1 3662.48 1382)">termination</text><text fill="#FFFFFF" font-family="Arial,Arial_MSFontService,sans-serif" font-weight="400" font-size="60" transform="matrix(1 0 0 1 527.48 1311)">120 </text><text fill="#FFFFFF" font-family="Arial,Arial_MSFontService,sans-serif" font-weight="400" font-size="60" transform="matrix(1 0 0 1 643.782 1311)">Ω</text><text fill="#FFFFFF" font-family="Arial,Arial_MSFontService,sans-serif" font-weight="400" font-size="60" transform="matrix(1 0 0 1 527.48 1382)">termination</text><path d="M2228 1774C2228 1751.36 2283.29 1733 2351.5 1733 2419.71 1733 2475 1751.36 2475 1774L2454.5 1774C2454.5 1762.68 2408.39 1753.5 2351.5 1753.5 2294.61 1753.5 2248.5 1762.68 2248.5 1774Z" fill="#00A933" fill-rule="evenodd"/><path d="M2723 1774C2723 1751.36 2778.29 1733 2846.5 1733 2914.71 1733 2970 1751.36 2970 1774L2949.5 1774C2949.5 1762.68 2903.39 1753.5 2846.5 1753.5 2789.61 1753.5 2743.5 1762.68 2743.5 1774Z" fill="#00A933" fill-rule="evenodd"/><path d="M2723 1773C2723 1795.64 2667.48 1814 2599 1814 2530.52 1814 2475 1795.64 2475 1773L2495.5 1773C2495.5 1784.32 2541.84 1793.5 2599 1793.5 2656.16 1793.5 2702.5 1784.32 2702.5 1773Z" fill="#00A933" fill-rule="evenodd"/><path d="M3218 1773C3218 1795.64 3162.48 1814 3094 1814 3025.52 1814 2970 1795.64 2970 1773L2990.5 1773C2990.5 1784.32 3036.84 1793.5 3094 1793.5 3151.16 1793.5 3197.5 1784.32 3197.5 1773Z" fill="#00A933" fill-rule="evenodd"/><path d="M2475 1773C2475 1795.64 2419.48 1814 2351 1814 2282.52 1814 2227 1795.64 2227 1773L2247.5 1773C2247.5 1784.32 2293.84 1793.5 2351 1793.5 2408.16 1793.5 2454.5 1784.32 2454.5 1773Z" fill="#FFFF6D" fill-rule="evenodd"/><path d="M2475 1774C2475 1751.36 2530.29 1733 2598.5 1733 2666.71 1733 2722 1751.36 2722 1774L2701.5 1774C2701.5 1762.68 2655.39 1753.5 2598.5 1753.5 2541.61 1753.5 2495.5 1762.68 2495.5 1774Z" fill="#FFFF6D" fill-rule="evenodd"/><path d="M2970 1774C2970 1751.36 3025.29 1733 3093.5 1733 3161.71 1733 3217 1751.36 3217 1774L3196.5 1774C3196.5 1762.68 3150.39 1753.5 3093.5 1753.5 3036.61 1753.5 2990.5 1762.68 2990.5 1774Z" fill="#FFFF6D" fill-rule="evenodd"/><path d="M2970 1773C2970 1795.64 2914.48 1814 2846 1814 2777.52 1814 2722 1795.64 2722 1773L2742.5 1773C2742.5 1784.32 2788.84 1793.5 2846 1793.5 2903.16 1793.5 2949.5 1784.32 2949.5 1773Z" fill="#FFFF6D" fill-rule="evenodd"/><path d="M0 0 330 247" stroke="#3465A4" stroke-width="0" stroke-linejoin="round" stroke-miterlimit="10" fill="none" fill-rule="evenodd" transform="matrix(-1 0 0 1 2640.5 1403.5)"/><path d="M2805.5 1403.5 3135.5 1650.5" stroke="#3465A4" stroke-width="0" stroke-linejoin="round" stroke-miterlimit="10" fill="none" fill-rule="evenodd"/><text fill="#FFFFFF" font-family="Arial,Arial_MSFontService,sans-serif" font-weight="400" font-size="69" transform="matrix(1 0 0 1 2589.98 1954)">Twisted pair</text><text fill="#00A933" font-family="Arial,Arial_MSFontService,sans-serif" font-weight="400" font-size="69" transform="matrix(1 0 0 1 1187.48 1176)">CAN High (CH)</text><text fill="#FFFF00" font-family="Arial,Arial_MSFontService,sans-serif" font-weight="400" font-size="69" transform="matrix(1 0 0 1 1187.48 1424)">CAN Low (CL)</text><text fill="#FFFFFF" font-family="Arial,Arial_MSFontService,sans-serif" font-weight="400" font-size="64" transform="matrix(1 0 0 1 2672.48 1129)">stubs</text><path d="M3.89695e-06-0.000180404 128.957 2.78546 128.957 2.78582-3.89695e-06 0.000180404ZM129.01 2.78568 129.012 2.78681 129.01 2.78785Z" fill="#3465A4" transform="matrix(1 0 0 -1 2888.5 1106.29)"/><path d="M2640.69 1106.29 2513.53 1103.5 2513.53 1103.5 2640.69 1106.29ZM2513.5 1103.5 2513.5 1103.5 2513.5 1103.5Z" fill="#3465A4"/></g></svg>
