<svg width="4246" height="796" xmlns="http://www.w3.org/2000/svg" xmlns:xlink="http://www.w3.org/1999/xlink" xml:space="preserve" overflow="hidden"><defs><clipPath id="clip0"><rect x="84" y="1514" width="4246" height="796"/></clipPath></defs><g clip-path="url(#clip0)" transform="translate(-84 -1514)"><rect x="83.9999" y="1514" width="4246" height="796" fill="#262626"/><rect x="165.5" y="1650.5" width="908" height="495" stroke="#3465A4" stroke-width="0" stroke-linejoin="round" stroke-miterlimit="10" fill="#729FCF"/><text font-family="Arial,Arial_MSFontService,sans-serif" font-weight="400" font-size="83" transform="matrix(1 0 0 1 405.613 1928)">Error Active</text><rect x="1733.5" y="1650.5" width="907" height="495" stroke="#3465A4" stroke-width="0" stroke-linejoin="round" stroke-miterlimit="10" fill="#FFFF00"/><text font-family="Arial,Arial_MSFontService,sans-serif" font-weight="400" font-size="83" transform="matrix(1 0 0 1 1938.75 1928)">Error Passive</text><rect x="3383.5" y="1650.5" width="907" height="495" stroke="#3465A4" stroke-width="0" stroke-linejoin="round" stroke-miterlimit="10" fill="#FF4000"/><text fill="#FFFFFF" font-family="Arial,Arial_MSFontService,sans-serif" font-weight="400" font-size="83" transform="matrix(1 0 0 1 3706.37 1928)">Bus</text><text fill="#FFFFFF" font-family="Arial,Arial_MSFontService,sans-serif" font-weight="400" font-size="83" transform="matrix(1 0 0 1 3848.45 1928)">-</text><text fill="#FFFFFF" font-family="Arial,Arial_MSFontService,sans-serif" font-weight="400" font-size="83" transform="matrix(1 0 0 1 3875.95 1928)">off</text><path d="M2805.5 1727.77 3271.85 1727.77 3271.85 1739.23 2805.5 1739.23ZM3266.12 1716.31 3300.5 1733.5 3266.12 1750.69Z" fill="#F2F2F2"/><path d="M4.177e-06-5.72917 466.355-5.72883 466.355 5.72951-4.177e-06 5.72917ZM460.625-17.1872 495 0.000360892 460.625 17.1878Z" fill="#F2F2F2" transform="matrix(-1 0 0 1 1650.5 2063.5)"/><path d="M1155.5 1727.77 1621.85 1727.77 1621.85 1739.23 1155.5 1739.23ZM1616.12 1716.31 1650.5 1733.5 1616.12 1750.69Z" fill="#F2F2F2"/><text fill="#FFFFFF" font-family="Arial,Arial_MSFontService,sans-serif" font-weight="400" font-size="48" transform="matrix(1 0 0 1 1269.98 1631)">TEC &gt; 127 OR </text><text fill="#FFFFFF" font-family="Arial,Arial_MSFontService,sans-serif" font-weight="400" font-size="48" transform="matrix(1 0 0 1 1269.98 1689)">REC &gt; 127</text><text fill="#FFFFFF" font-family="Arial,Arial_MSFontService,sans-serif" font-weight="400" font-size="48" transform="matrix(1 0 0 1 1269.98 1961)">TEC &lt; 127 AND </text><text fill="#FFFFFF" font-family="Arial,Arial_MSFontService,sans-serif" font-weight="400" font-size="48" transform="matrix(1 0 0 1 1269.98 2019)">REC &lt; 127</text><text fill="#FFFFFF" font-family="Arial,Arial_MSFontService,sans-serif" font-weight="400" font-size="48" transform="matrix(1 0 0 1 2919.98 1631)">TEC &gt; 255</text></g></svg>
